<mxfile host="app.diagrams.net" modified="2024-02-20T14:45:28.015Z" agent="Mozilla/5.0 (Windows NT 10.0; Win64; x64; rv:122.0) Gecko/20100101 Firefox/122.0" version="23.1.5" etag="poUwgCYXleoBx5HbU4sa" type="github">
  <diagram name="Page-1" id="k9O7HYeLeQiJ3iwDByfC">
    <mxGraphModel>
      <root>
        <mxCell id="0" />
        <mxCell id="1" parent="0" />
      </root>
    </mxGraphModel>
  </diagram>
</mxfile>
